<svg width="265" height="30" viewBox="0 0 265 30" fill="none" xmlns="http://www.w3.org/2000/svg">
<path fill-rule="evenodd" clip-rule="evenodd" d="M1.74609 10.7004C3.65281 8.55917 6.09057 6.84248 8.86725 5.6856C11.6439 4.52872 14.6836 3.96328 17.7469 4.03382C18.2758 -5.12363 3.39916 6.55835 1.74609 10.7004Z" fill="white"/>
<path fill-rule="evenodd" clip-rule="evenodd" d="M32.0758 9.97645C32.2959 10.495 25.3096 14.0875 19.6787 14.6961C19.7379 9.85455 22.1645 1.48789 16.8975 0.0978421C27.2225 -1.06114 32.7963 8.42812 32.0758 9.97645Z" fill="white"/>
<path fill-rule="evenodd" clip-rule="evenodd" d="M8.88704 28.9936C-0.293517 24.1611 -4.15103 14.9265 6.10576 8.34277C2.32163 16.5221 3.93904 23.5352 8.88704 28.9936Z" fill="white"/>
<path fill-rule="evenodd" clip-rule="evenodd" d="M5.97803 18.4929C15.4022 19.6246 26.9726 18.0562 32.6931 11.9648C33.3046 26.0453 6.73934 39.8264 5.97803 18.4929Z" fill="white"/>
<path d="M53.9895 16.8226H60.1799V20.1267V20.1647C60.1799 20.5065 60.1419 20.8483 60.066 21.1901C59.99 21.4939 59.8381 21.7597 59.6482 21.9876C59.4204 22.1775 59.1165 22.3294 58.8127 22.4054C58.4709 22.4813 58.1291 22.5193 57.7873 22.5193H55.4327H55.3947C54.749 22.5193 54.1794 22.4434 53.5717 22.2914C52.8881 22.1395 52.2805 21.8737 51.7868 21.4179C51.331 20.9242 51.0652 20.3166 50.9133 19.633C50.7614 19.0253 50.6854 18.4557 50.6854 17.81V17.7721V12.0753V12.0374C50.6854 11.3917 50.7614 10.86 50.9133 10.2524C51.0652 9.56879 51.331 8.96114 51.7868 8.46742C52.2805 8.01169 52.8881 7.70786 53.5717 7.55595C54.1794 7.40404 54.749 7.32808 55.3947 7.32808H55.4327H62.0788V3.53027H55.4327H55.3947C54.4832 3.53027 53.4958 3.64421 52.6223 3.87208C51.293 4.1759 50.0777 4.82153 49.1283 5.733L49.0903 5.77098C48.1788 6.72043 47.4952 7.97371 47.1914 9.30294C46.9635 10.1764 46.8496 11.1259 46.8496 12.0374V12.0753V17.7721V17.81C46.8496 18.7215 46.9635 19.671 47.1914 20.5444C47.4952 21.8737 48.1788 23.127 49.0903 24.0764L49.1283 24.1144C50.0777 25.0259 51.293 25.7095 52.6223 26.0133C53.4958 26.2412 54.4832 26.3171 55.3947 26.3171H55.4327H57.7873C58.4709 26.3171 59.0785 26.2412 59.7242 26.0892C60.7116 25.8614 61.5851 25.3677 62.3067 24.6841L62.3447 24.6461C63.0283 23.9245 63.484 23.089 63.7119 22.1015C63.8638 21.4559 63.9397 20.8483 63.9397 20.1647V20.1267V13.0248H53.9895V16.8226Z" fill="white"/>
<path d="M69.4127 26.3171H73.2105V3.53027H69.4127V26.3171Z" fill="white"/>
<path d="M93.4991 11.4677C92.5497 10.5562 91.2584 9.87261 89.9292 9.56879C89.0557 9.34092 88.1442 9.22699 87.1948 9.22699C86.2453 9.22699 85.2579 9.34092 84.3844 9.56879C83.0552 9.87261 81.8399 10.5562 80.8904 11.4677H80.8524C79.941 12.4171 79.2574 13.7084 78.9535 15.0376C78.7257 15.9111 78.6117 16.8226 78.6117 17.7721C78.6117 18.7215 78.7257 19.671 78.9535 20.5444C79.2574 21.8737 79.941 23.127 80.8524 24.0764L80.8904 24.1144C81.8399 25.0259 83.0552 25.7095 84.3844 26.0133C85.2579 26.2412 86.2453 26.3171 87.1948 26.3171C88.1442 26.3171 89.0557 26.2412 89.9292 26.0133C91.2584 25.7095 92.5497 25.0259 93.4991 24.1144V24.0764C94.4106 23.127 95.0942 21.8737 95.398 20.5444C95.6259 19.671 95.7019 18.7215 95.7019 17.7721C95.7019 16.8226 95.6259 15.9111 95.398 15.0376C95.0942 13.7084 94.4106 12.4171 93.4991 11.4677ZM91.7142 19.633C91.5623 20.3166 91.2584 20.9242 90.8027 21.4179C90.309 21.8737 89.7013 22.1395 89.0177 22.2914C88.4101 22.4434 87.8404 22.5193 87.1948 22.5193C86.5492 22.5193 85.9415 22.4434 85.3339 22.2914C84.6503 22.1395 84.0426 21.8737 83.5489 21.4179C83.0932 20.9242 82.8273 20.3166 82.6754 19.633C82.5235 19.0253 82.4475 18.4177 82.4475 17.7721C82.4475 17.1264 82.5235 16.5568 82.6754 15.9491C82.8273 15.2655 83.0932 14.6199 83.5489 14.1262C84.0426 13.6704 84.6503 13.4046 85.3339 13.2527C85.9415 13.1007 86.5492 13.0248 87.1948 13.0248C87.8404 13.0248 88.4101 13.1007 89.0177 13.2527C89.7013 13.4046 90.309 13.6704 90.8027 14.1262C91.2584 14.6199 91.5623 15.2655 91.7142 15.9491C91.8661 16.5568 91.942 17.1264 91.942 17.7721C91.942 18.4177 91.8661 19.0253 91.7142 19.633Z" fill="white"/>
<path d="M115.84 11.4677H115.802C114.852 10.5562 113.599 9.87261 112.27 9.56879C111.396 9.34092 110.447 9.22699 109.497 9.22699C108.548 9.22699 107.598 9.34092 106.725 9.56879C106.003 9.75868 105.396 9.98655 104.75 10.3283V3.53027H100.952V17.7721V17.81C100.952 18.7215 101.066 19.671 101.294 20.5444C101.598 21.8737 102.282 23.127 103.193 24.0764V24.1144C104.142 25.0259 105.396 25.7095 106.725 26.0133C107.598 26.2412 108.548 26.3171 109.497 26.3171C110.447 26.3171 111.396 26.2412 112.27 26.0133C113.599 25.7095 114.852 25.0259 115.802 24.1144L115.84 24.0764C116.751 23.127 117.397 21.8737 117.701 20.5444C117.929 19.671 118.042 18.7215 118.042 17.7721C118.042 16.8226 117.929 15.9111 117.701 15.0376C117.397 13.7084 116.751 12.4171 115.84 11.4677ZM114.017 19.633C113.865 20.3166 113.561 20.9242 113.105 21.4179C112.612 21.8737 112.004 22.1395 111.32 22.2914C110.713 22.4434 110.143 22.5193 109.497 22.5193C108.852 22.5193 108.282 22.4434 107.674 22.2914C106.991 22.1395 106.345 21.8737 105.852 21.4179C105.396 20.9242 105.092 20.3166 104.94 19.633C104.788 19.0253 104.75 18.4177 104.75 17.7721C104.75 17.1264 104.788 16.5568 104.94 15.9491C105.092 15.2655 105.396 14.6199 105.852 14.1262C106.345 13.6704 106.991 13.4046 107.674 13.2527C108.282 13.1007 108.852 13.0248 109.497 13.0248C110.143 13.0248 110.713 13.1007 111.32 13.2527C112.004 13.4046 112.612 13.6704 113.105 14.1262C113.561 14.6199 113.865 15.2655 114.017 15.9491C114.169 16.5568 114.245 17.1264 114.245 17.7721C114.245 18.4177 114.169 19.0253 114.017 19.633Z" fill="white"/>
<path d="M137.871 11.4677C136.922 10.5562 135.63 9.87261 134.301 9.56879C133.428 9.34092 132.516 9.22699 131.567 9.22699C130.617 9.22699 129.63 9.34092 128.756 9.56879C127.427 9.87261 126.212 10.5562 125.262 11.4677H125.224C124.313 12.4171 123.629 13.7084 123.326 15.0376C123.098 15.9111 122.984 16.8226 122.984 17.7721C122.984 18.7215 123.098 19.671 123.326 20.5444C123.629 21.8737 124.313 23.127 125.224 24.0764L125.262 24.1144C126.212 25.0259 127.427 25.7095 128.756 26.0133C129.63 26.2412 130.617 26.3171 131.567 26.3171C132.516 26.3171 133.428 26.2412 134.301 26.0133C135.023 25.8234 135.668 25.5576 136.314 25.2157V26.3171H140.074V17.7721V17.7341C140.074 16.8226 139.998 15.9111 139.77 15.0376C139.466 13.7084 138.783 12.4171 137.871 11.4677ZM136.086 19.633C135.934 20.3166 135.63 20.9242 135.175 21.4179C134.681 21.8737 134.073 22.1395 133.39 22.2914C132.782 22.4434 132.212 22.5193 131.567 22.5193C130.921 22.5193 130.314 22.4434 129.706 22.2914C129.022 22.1395 128.415 21.8737 127.921 21.4179C127.465 20.9242 127.199 20.3166 127.047 19.633C126.896 19.0253 126.82 18.4177 126.82 17.7721C126.82 17.1264 126.896 16.5568 127.047 15.9491C127.199 15.2655 127.465 14.6199 127.921 14.1262C128.415 13.6704 129.022 13.4046 129.706 13.2527C130.314 13.1007 130.921 13.0248 131.567 13.0248C132.212 13.0248 132.782 13.1007 133.39 13.2527C134.073 13.4046 134.681 13.6704 135.175 14.1262C135.63 14.6199 135.934 15.2655 136.086 15.9491C136.238 16.5568 136.314 17.1264 136.314 17.7721C136.314 18.4177 136.238 19.0253 136.086 19.633Z" fill="white"/>
<path d="M145.547 26.3171H149.345V3.53027H145.547V26.3171Z" fill="white"/>
<path d="M166.657 15.0756H166.695C167.455 15.7972 168.404 16.3669 169.429 16.5947C170.113 16.7466 170.835 16.8226 171.556 16.8226H175.392C175.81 16.8226 176.19 16.8606 176.569 16.9365C176.949 17.0125 177.253 17.2024 177.557 17.4682C177.823 17.772 178.012 18.1139 178.088 18.4936C178.164 18.8734 178.202 19.2532 178.202 19.671C178.202 20.0887 178.164 20.4685 178.088 20.8483C178.012 21.2281 177.823 21.5699 177.557 21.8737C177.253 22.1395 176.911 22.2914 176.531 22.3674C176.152 22.4434 175.81 22.5193 175.392 22.5193H166.809V26.3171H175.392C176.114 26.3171 176.759 26.2412 177.443 26.0892C178.506 25.8614 179.456 25.2917 180.253 24.5701H180.291C181.013 23.8106 181.544 22.7852 181.772 21.7597C181.924 21.0761 182 20.4305 182 19.671C182 18.9114 181.924 18.2658 181.772 17.5822C181.544 16.5188 181.013 15.6073 180.291 14.8098L180.253 14.7718C179.494 14.0502 178.468 13.5185 177.443 13.2906C176.759 13.1387 176.114 13.0248 175.392 13.0248H171.556C171.138 13.0248 170.759 12.9488 170.379 12.8729C169.999 12.7969 169.657 12.645 169.354 12.3792C169.088 12.0753 168.936 11.7335 168.86 11.3538C168.784 10.974 168.708 10.5942 168.708 10.1764C168.708 9.75868 168.784 9.34092 168.86 8.96114C168.936 8.58136 169.088 8.27753 169.354 7.97371C169.657 7.70786 169.999 7.51797 170.379 7.44202C170.759 7.36606 171.138 7.32808 171.556 7.32808H180.139V3.53027H171.556H171.518C170.797 3.53027 170.151 3.64421 169.467 3.79612C168.404 4.02399 167.493 4.55568 166.695 5.27726L166.657 5.31524C165.935 6.07481 165.404 7.06224 165.176 8.08764C165.024 8.77125 164.91 9.45485 164.91 10.2144C164.91 10.974 165.024 11.5816 165.176 12.2652C165.404 13.3286 165.935 14.2781 166.657 15.0756Z" fill="white"/>
<path d="M201.84 11.4677C200.891 10.5562 199.6 9.87261 198.271 9.56879C197.397 9.34092 196.486 9.22699 195.536 9.22699C194.587 9.22699 193.599 9.34092 192.726 9.56879C191.397 9.87261 190.181 10.5562 189.232 11.4677H189.194C188.282 12.4171 187.599 13.7084 187.295 15.0376C187.067 15.9111 186.953 16.8226 186.953 17.7721C186.953 18.7215 187.067 19.671 187.295 20.5444C187.599 21.8737 188.282 23.127 189.194 24.0764L189.232 24.1144C190.181 25.0259 191.397 25.7095 192.726 26.0133C193.599 26.2412 194.587 26.3171 195.536 26.3171C196.486 26.3171 197.397 26.2412 198.271 26.0133C199.6 25.7095 200.891 25.0259 201.84 24.1144V24.0764C202.752 23.127 203.436 21.8737 203.739 20.5444C203.967 19.671 204.043 18.7215 204.043 17.7721C204.043 16.8226 203.967 15.9111 203.739 15.0376C203.436 13.7084 202.752 12.4171 201.84 11.4677ZM200.056 19.633C199.904 20.3166 199.6 20.9242 199.144 21.4179C198.65 21.8737 198.043 22.1395 197.359 22.2914C196.751 22.4434 196.182 22.5193 195.536 22.5193C194.89 22.5193 194.283 22.4434 193.675 22.2914C192.992 22.1395 192.384 21.8737 191.89 21.4179C191.434 20.9242 191.169 20.3166 191.017 19.633C190.865 19.0253 190.789 18.4177 190.789 17.7721C190.789 17.1264 190.865 16.5568 191.017 15.9491C191.169 15.2655 191.434 14.6199 191.89 14.1262C192.384 13.6704 192.992 13.4046 193.675 13.2527C194.283 13.1007 194.89 13.0248 195.536 13.0248C196.182 13.0248 196.751 13.1007 197.359 13.2527C198.043 13.4046 198.65 13.6704 199.144 14.1262C199.6 14.6199 199.904 15.2655 200.056 15.9491C200.207 16.5568 200.283 17.1264 200.283 17.7721C200.283 18.4177 200.207 19.0253 200.056 19.633Z" fill="white"/>
<path d="M211.269 24.0764L211.307 24.1144C212.256 25.0259 213.471 25.7095 214.8 26.0133C215.674 26.2412 216.661 26.3171 217.573 26.3171H217.611H224.257V22.5193H217.611H217.573C216.927 22.5193 216.358 22.4434 215.75 22.2914C215.066 22.1395 214.459 21.8737 213.965 21.4179C213.509 20.9242 213.243 20.3166 213.091 19.633C212.94 19.0253 212.864 18.4177 212.864 17.7721C212.864 17.1264 212.94 16.5568 213.091 15.9491C213.243 15.2655 213.509 14.6199 213.965 14.1262C214.459 13.6704 215.066 13.4046 215.75 13.2527C216.358 13.1007 216.927 13.0248 217.573 13.0248H217.611H224.257V9.22699H217.611H217.573C216.661 9.22699 215.674 9.34092 214.8 9.56879C213.471 9.87261 212.256 10.5562 211.307 11.4677H211.269C210.357 12.4171 209.673 13.7084 209.37 15.0376C209.142 15.9111 209.028 16.8226 209.028 17.7721C209.028 18.7215 209.142 19.671 209.37 20.5444C209.673 21.8737 210.357 23.127 211.269 24.0764Z" fill="white"/>
<path d="M229.44 26.3171H233.238V9.22699H229.44V26.3171ZM229.44 7.32808H233.238V3.53027H229.44V7.32808Z" fill="white"/>
<path d="M253.526 11.4677C252.577 10.5562 251.286 9.87261 249.956 9.56879C249.083 9.34092 248.171 9.22699 247.222 9.22699C246.272 9.22699 245.285 9.34092 244.412 9.56879C243.082 9.87261 241.867 10.5562 240.918 11.4677H240.88C239.968 12.4171 239.284 13.7084 238.981 15.0376C238.753 15.9111 238.639 16.8226 238.639 17.7721C238.639 18.7215 238.753 19.671 238.981 20.5444C239.284 21.8737 239.968 23.127 240.88 24.0764L240.918 24.1144C241.867 25.0259 243.082 25.7095 244.412 26.0133C245.285 26.2412 246.272 26.3171 247.222 26.3171C248.171 26.3171 249.083 26.2412 249.956 26.0133C250.678 25.8234 251.324 25.5576 251.969 25.2157V26.3171H255.729V17.7721V17.7341C255.729 16.8226 255.653 15.9111 255.425 15.0376C255.121 13.7084 254.438 12.4171 253.526 11.4677ZM251.741 19.633C251.589 20.3166 251.286 20.9242 250.83 21.4179C250.336 21.8737 249.728 22.1395 249.045 22.2914C248.437 22.4434 247.868 22.5193 247.222 22.5193C246.576 22.5193 245.969 22.4434 245.361 22.2914C244.677 22.1395 244.07 21.8737 243.576 21.4179C243.12 20.9242 242.854 20.3166 242.702 19.633C242.551 19.0253 242.475 18.4177 242.475 17.7721C242.475 17.1264 242.551 16.5568 242.702 15.9491C242.854 15.2655 243.12 14.6199 243.576 14.1262C244.07 13.6704 244.677 13.4046 245.361 13.2527C245.969 13.1007 246.576 13.0248 247.222 13.0248C247.868 13.0248 248.437 13.1007 249.045 13.2527C249.728 13.4046 250.336 13.6704 250.83 14.1262C251.286 14.6199 251.589 15.2655 251.741 15.9491C251.893 16.5568 251.969 17.1264 251.969 17.7721C251.969 18.4177 251.893 19.0253 251.741 19.633Z" fill="white"/>
<path d="M261.202 26.3171H265V3.53027H261.202V26.3171Z" fill="white"/>
</svg>
