<svg width="261" height="28" viewBox="0 0 261 28" fill="none" xmlns="http://www.w3.org/2000/svg">
<path d="M9.38018 15.9355H16.762V19.8755V19.9208C16.762 20.3283 16.7167 20.7359 16.6261 21.1435C16.5355 21.5058 16.3544 21.8228 16.1279 22.0945C15.8562 22.321 15.4939 22.5021 15.1316 22.5927C14.7241 22.6833 14.3165 22.7285 13.9089 22.7285H11.1011H11.0558C10.2859 22.7285 9.60661 22.638 8.88202 22.4568C8.06685 22.2757 7.34226 21.9587 6.75353 21.4152C6.21008 20.8265 5.89307 20.1019 5.71193 19.2867C5.53078 18.5621 5.4402 17.8828 5.4402 17.113V17.0677V10.2746V10.2293C5.4402 9.45944 5.53078 8.82542 5.71193 8.10083C5.89307 7.28567 6.21008 6.56107 6.75353 5.97234C7.34226 5.4289 8.06685 5.0666 8.88202 4.88545C9.60661 4.7043 10.2859 4.61373 11.0558 4.61373H11.1011H19.0263V0.085022H11.1011H11.0558C9.96891 0.085022 8.79145 0.220884 7.74984 0.492606C6.1648 0.854903 4.71561 1.62478 3.58343 2.71167L3.53815 2.75696C2.45126 3.88914 1.63609 5.38361 1.27379 6.96866C1.00207 8.01026 0.866211 9.14243 0.866211 10.2293V10.2746V17.0677V17.113C0.866211 18.1998 1.00207 19.332 1.27379 20.3736C1.63609 21.9587 2.45126 23.4531 3.53815 24.5853L3.58343 24.6306C4.71561 25.7175 6.1648 26.5327 7.74984 26.895C8.79145 27.1667 9.96891 27.2573 11.0558 27.2573H11.1011H13.9089C14.7241 27.2573 15.4486 27.1667 16.2185 26.9855C17.396 26.7138 18.4376 26.1251 19.298 25.3099L19.3433 25.2646C20.1585 24.4042 20.7019 23.4079 20.9737 22.2304C21.1548 21.4605 21.2454 20.7359 21.2454 19.9208V19.8755V11.4068H9.38018V15.9355Z" fill="#656064"/>
<path d="M27.7717 27.2573H32.3004V0.085022H27.7717V27.2573Z" fill="#656064"/>
<path d="M56.4936 9.55002C55.3614 8.46313 53.8216 7.64796 52.2366 7.28567C51.195 7.01394 50.1081 6.87808 48.9759 6.87808C47.8438 6.87808 46.6663 7.01394 45.6247 7.28567C44.0396 7.64796 42.5905 8.46313 41.4583 9.55002H41.413C40.3261 10.6822 39.5109 12.222 39.1486 13.807C38.8769 14.8486 38.7411 15.9355 38.7411 17.0677C38.7411 18.1998 38.8769 19.332 39.1486 20.3736C39.5109 21.9587 40.3261 23.4531 41.413 24.5853L41.4583 24.6306C42.5905 25.7175 44.0396 26.5327 45.6247 26.895C46.6663 27.1667 47.8438 27.2573 48.9759 27.2573C50.1081 27.2573 51.195 27.1667 52.2366 26.895C53.8216 26.5327 55.3614 25.7175 56.4936 24.6306V24.5853C57.5805 23.4531 58.3956 21.9587 58.7579 20.3736C59.0297 19.332 59.1202 18.1998 59.1202 17.0677C59.1202 15.9355 59.0297 14.8486 58.7579 13.807C58.3956 12.222 57.5805 10.6822 56.4936 9.55002ZM54.3651 19.2867C54.1839 20.1019 53.8216 20.8265 53.2782 21.4152C52.6895 21.9587 51.9649 22.2757 51.1497 22.4568C50.4251 22.638 49.7458 22.7285 48.9759 22.7285C48.206 22.7285 47.4815 22.638 46.7569 22.4568C45.9417 22.2757 45.2171 21.9587 44.6284 21.4152C44.0849 20.8265 43.7679 20.1019 43.5868 19.2867C43.4056 18.5621 43.315 17.8375 43.315 17.0677C43.315 16.2978 43.4056 15.6185 43.5868 14.8939C43.7679 14.0787 44.0849 13.3088 44.6284 12.7201C45.2171 12.1767 45.9417 11.8597 46.7569 11.6785C47.4815 11.4974 48.206 11.4068 48.9759 11.4068C49.7458 11.4068 50.4251 11.4974 51.1497 11.6785C51.9649 11.8597 52.6895 12.1767 53.2782 12.7201C53.8216 13.3088 54.1839 14.0787 54.3651 14.8939C54.5462 15.6185 54.6368 16.2978 54.6368 17.0677C54.6368 17.8375 54.5462 18.5621 54.3651 19.2867Z" fill="#656064"/>
<path d="M83.1337 9.55002H83.0884C81.9562 8.46313 80.4617 7.64796 78.8767 7.28567C77.8351 7.01394 76.7029 6.87808 75.5707 6.87808C74.4386 6.87808 73.3064 7.01394 72.2648 7.28567C71.4043 7.5121 70.6798 7.78382 69.9099 8.19141V0.085022H65.3812V17.0677V17.113C65.3812 18.1998 65.517 19.332 65.7887 20.3736C66.151 21.9587 66.9662 23.4531 68.0531 24.5853V24.6306C69.1853 25.7175 70.6797 26.5327 72.2648 26.895C73.3064 27.1667 74.4386 27.2573 75.5707 27.2573C76.7029 27.2573 77.8351 27.1667 78.8767 26.895C80.4617 26.5327 81.9562 25.7175 83.0884 24.6306L83.1337 24.5853C84.2206 23.4531 84.9905 21.9587 85.3528 20.3736C85.6245 19.332 85.7603 18.1998 85.7603 17.0677C85.7603 15.9355 85.6245 14.8486 85.3528 13.807C84.9905 12.222 84.2206 10.6822 83.1337 9.55002ZM80.9599 19.2867C80.7788 20.1019 80.4165 20.8265 79.873 21.4152C79.2843 21.9587 78.5597 22.2757 77.7445 22.4568C77.0199 22.638 76.3406 22.7285 75.5707 22.7285C74.8009 22.7285 74.1216 22.638 73.397 22.4568C72.5818 22.2757 71.8119 21.9587 71.2232 21.4152C70.6798 20.8265 70.3175 20.1019 70.1363 19.2867C69.9552 18.5621 69.9099 17.8375 69.9099 17.0677C69.9099 16.2978 69.9552 15.6185 70.1363 14.8939C70.3175 14.0787 70.6798 13.3088 71.2232 12.7201C71.8119 12.1767 72.5818 11.8597 73.397 11.6785C74.1216 11.4974 74.8009 11.4068 75.5707 11.4068C76.3406 11.4068 77.0199 11.4974 77.7445 11.6785C78.5597 11.8597 79.2843 12.1767 79.873 12.7201C80.4165 13.3088 80.7788 14.0787 80.9599 14.8939C81.1411 15.6185 81.2316 16.2978 81.2316 17.0677C81.2316 17.8375 81.1411 18.5621 80.9599 19.2867Z" fill="#656064"/>
<path d="M109.405 9.55002C108.273 8.46313 106.733 7.64796 105.148 7.28567C104.107 7.01394 103.02 6.87808 101.887 6.87808C100.755 6.87808 99.5778 7.01394 98.5362 7.28567C96.9512 7.64796 95.502 8.46313 94.3698 9.55002H94.3245C93.2377 10.6822 92.4225 12.222 92.0602 13.807C91.7885 14.8486 91.6526 15.9355 91.6526 17.0677C91.6526 18.1998 91.7885 19.332 92.0602 20.3736C92.4225 21.9587 93.2377 23.4531 94.3245 24.5853L94.3698 24.6306C95.502 25.7175 96.9512 26.5327 98.5362 26.895C99.5778 27.1667 100.755 27.2573 101.887 27.2573C103.02 27.2573 104.107 27.1667 105.148 26.895C106.009 26.6685 106.778 26.3515 107.548 25.9439V27.2573H112.032V17.0677V17.0224C112.032 15.9355 111.941 14.8486 111.669 13.807C111.307 12.222 110.492 10.6822 109.405 9.55002ZM107.277 19.2867C107.095 20.1019 106.733 20.8265 106.19 21.4152C105.601 21.9587 104.876 22.2757 104.061 22.4568C103.337 22.638 102.657 22.7285 101.887 22.7285C101.118 22.7285 100.393 22.638 99.6684 22.4568C98.8532 22.2757 98.1287 21.9587 97.5399 21.4152C96.9965 20.8265 96.6795 20.1019 96.4983 19.2867C96.3172 18.5621 96.2266 17.8375 96.2266 17.0677C96.2266 16.2978 96.3172 15.6185 96.4983 14.8939C96.6795 14.0787 96.9965 13.3088 97.5399 12.7201C98.1287 12.1767 98.8532 11.8597 99.6684 11.6785C100.393 11.4974 101.118 11.4068 101.887 11.4068C102.657 11.4068 103.337 11.4974 104.061 11.6785C104.876 11.8597 105.601 12.1767 106.19 12.7201C106.733 13.3088 107.095 14.0787 107.277 14.8939C107.458 15.6185 107.548 16.2978 107.548 17.0677C107.548 17.8375 107.458 18.5621 107.277 19.2867Z" fill="#656064"/>
<path d="M118.558 27.2573H123.087V0.085022H118.558V27.2573Z" fill="#656064"/>
<path d="M143.731 13.8523H143.776C144.682 14.7127 145.814 15.392 147.037 15.6638C147.852 15.8449 148.713 15.9355 149.573 15.9355H154.147C154.645 15.9355 155.098 15.9808 155.551 16.0714C156.004 16.1619 156.366 16.3884 156.728 16.7054C157.045 17.0677 157.272 17.4753 157.362 17.9281C157.453 18.381 157.498 18.8339 157.498 19.332C157.498 19.8302 157.453 20.283 157.362 20.7359C157.272 21.1888 157.045 21.5964 156.728 21.9587C156.366 22.2757 155.958 22.4568 155.506 22.5474C155.053 22.638 154.645 22.7285 154.147 22.7285H143.912V27.2573H154.147C155.007 27.2573 155.777 27.1667 156.592 26.9855C157.861 26.7138 158.993 26.0345 159.944 25.174H159.989C160.849 24.2683 161.483 23.0456 161.755 21.8228C161.936 21.0076 162.027 20.2378 162.027 19.332C162.027 18.4263 161.936 17.6564 161.755 16.8412C161.483 15.5732 160.849 14.4863 159.989 13.5353L159.944 13.49C159.038 12.6295 157.815 11.9955 156.592 11.7238C155.777 11.5426 155.007 11.4068 154.147 11.4068H149.573C149.075 11.4068 148.622 11.3162 148.169 11.2256C147.716 11.1351 147.309 10.9539 146.946 10.6369C146.629 10.2746 146.448 9.86703 146.358 9.41416C146.267 8.96129 146.176 8.50841 146.176 8.01026C146.176 7.5121 146.267 7.01394 146.358 6.56107C146.448 6.1082 146.629 5.74591 146.946 5.38361C147.309 5.0666 147.716 4.84016 148.169 4.74959C148.622 4.65902 149.075 4.61373 149.573 4.61373H159.808V0.085022H149.573H149.528C148.667 0.085022 147.897 0.220885 147.082 0.402033C145.814 0.673755 144.727 1.30777 143.776 2.16823L143.731 2.21352C142.87 3.11926 142.236 4.29672 141.965 5.51947C141.784 6.33464 141.648 7.1498 141.648 8.05554C141.648 8.96129 141.784 9.68588 141.965 10.501C142.236 11.7691 142.87 12.9013 143.731 13.8523Z" fill="#656064"/>
<path d="M185.686 9.55002C184.553 8.46313 183.014 7.64796 181.429 7.28567C180.387 7.01394 179.3 6.87808 178.168 6.87808C177.036 6.87808 175.858 7.01394 174.817 7.28567C173.232 7.64796 171.782 8.46313 170.65 9.55002H170.605C169.518 10.6822 168.703 12.222 168.341 13.807C168.069 14.8486 167.933 15.9355 167.933 17.0677C167.933 18.1998 168.069 19.332 168.341 20.3736C168.703 21.9587 169.518 23.4531 170.605 24.5853L170.65 24.6306C171.782 25.7175 173.232 26.5327 174.817 26.895C175.858 27.1667 177.036 27.2573 178.168 27.2573C179.3 27.2573 180.387 27.1667 181.429 26.895C183.014 26.5327 184.553 25.7175 185.686 24.6306V24.5853C186.772 23.4531 187.588 21.9587 187.95 20.3736C188.222 19.332 188.312 18.1998 188.312 17.0677C188.312 15.9355 188.222 14.8486 187.95 13.807C187.588 12.222 186.772 10.6822 185.686 9.55002ZM183.557 19.2867C183.376 20.1019 183.014 20.8265 182.47 21.4152C181.881 21.9587 181.157 22.2757 180.342 22.4568C179.617 22.638 178.938 22.7285 178.168 22.7285C177.398 22.7285 176.673 22.638 175.949 22.4568C175.134 22.2757 174.409 21.9587 173.82 21.4152C173.277 20.8265 172.96 20.1019 172.779 19.2867C172.598 18.5621 172.507 17.8375 172.507 17.0677C172.507 16.2978 172.598 15.6185 172.779 14.8939C172.96 14.0787 173.277 13.3088 173.82 12.7201C174.409 12.1767 175.134 11.8597 175.949 11.6785C176.673 11.4974 177.398 11.4068 178.168 11.4068C178.938 11.4068 179.617 11.4974 180.342 11.6785C181.157 11.8597 181.881 12.1767 182.47 12.7201C183.014 13.3088 183.376 14.0787 183.557 14.8939C183.738 15.6185 183.829 16.2978 183.829 17.0677C183.829 17.8375 183.738 18.5621 183.557 19.2867Z" fill="#656064"/>
<path d="M196.928 24.5853L196.973 24.6306C198.105 25.7175 199.555 26.5327 201.14 26.895C202.181 27.1667 203.359 27.2573 204.446 27.2573H204.491H212.416V22.7285H204.491H204.446C203.676 22.7285 202.996 22.638 202.272 22.4568C201.457 22.2757 200.732 21.9587 200.143 21.4152C199.6 20.8265 199.283 20.1019 199.102 19.2867C198.921 18.5621 198.83 17.8375 198.83 17.0677C198.83 16.2978 198.921 15.6185 199.102 14.8939C199.283 14.0787 199.6 13.3088 200.143 12.7201C200.732 12.1767 201.457 11.8597 202.272 11.6785C202.996 11.4974 203.676 11.4068 204.446 11.4068H204.491H212.416V6.87808H204.491H204.446C203.359 6.87808 202.181 7.01394 201.14 7.28567C199.555 7.64796 198.105 8.46313 196.973 9.55002H196.928C195.841 10.6822 195.026 12.222 194.664 13.807C194.392 14.8486 194.256 15.9355 194.256 17.0677C194.256 18.1998 194.392 19.332 194.664 20.3736C195.026 21.9587 195.841 23.4531 196.928 24.5853Z" fill="#656064"/>
<path d="M218.596 27.2573H223.125V6.87808H218.596V27.2573ZM218.596 4.61373H223.125V0.085022H218.596V4.61373Z" fill="#656064"/>
<path d="M247.318 9.55002C246.186 8.46313 244.646 7.64796 243.061 7.28567C242.02 7.01394 240.933 6.87808 239.801 6.87808C238.669 6.87808 237.491 7.01394 236.449 7.28567C234.864 7.64796 233.415 8.46313 232.283 9.55002H232.238C231.151 10.6822 230.336 12.222 229.973 13.807C229.702 14.8486 229.566 15.9355 229.566 17.0677C229.566 18.1998 229.702 19.332 229.973 20.3736C230.336 21.9587 231.151 23.4531 232.238 24.5853L232.283 24.6306C233.415 25.7175 234.864 26.5327 236.449 26.895C237.491 27.1667 238.669 27.2573 239.801 27.2573C240.933 27.2573 242.02 27.1667 243.061 26.895C243.922 26.6685 244.692 26.3515 245.462 25.9439V27.2573H249.945V17.0677V17.0224C249.945 15.9355 249.854 14.8486 249.583 13.807C249.22 12.222 248.405 10.6822 247.318 9.55002ZM245.19 19.2867C245.009 20.1019 244.646 20.8265 244.103 21.4152C243.514 21.9587 242.79 22.2757 241.975 22.4568C241.25 22.638 240.571 22.7285 239.801 22.7285C239.031 22.7285 238.306 22.638 237.582 22.4568C236.766 22.2757 236.042 21.9587 235.453 21.4152C234.91 20.8265 234.593 20.1019 234.412 19.2867C234.23 18.5621 234.14 17.8375 234.14 17.0677C234.14 16.2978 234.23 15.6185 234.412 14.8939C234.593 14.0787 234.91 13.3088 235.453 12.7201C236.042 12.1767 236.766 11.8597 237.582 11.6785C238.306 11.4974 239.031 11.4068 239.801 11.4068C240.571 11.4068 241.25 11.4974 241.975 11.6785C242.79 11.8597 243.514 12.1767 244.103 12.7201C244.646 13.3088 245.009 14.0787 245.19 14.8939C245.371 15.6185 245.462 16.2978 245.462 17.0677C245.462 17.8375 245.371 18.5621 245.19 19.2867Z" fill="#656064"/>
<path d="M256.471 27.2573H261V0.085022H256.471V27.2573Z" fill="#656064"/>
</svg>
