<svg width="39" height="39" viewBox="0 0 39 39" fill="none" xmlns="http://www.w3.org/2000/svg">
<path fill-rule="evenodd" clip-rule="evenodd" d="M2.08203 14.1382C4.3557 11.3091 7.26262 9.04096 10.5737 7.51244C13.8847 5.98392 17.5094 5.23682 21.1622 5.33003C21.7929 -6.76923 4.05324 8.66555 2.08203 14.1382Z" fill="#656064"/>
<path fill-rule="evenodd" clip-rule="evenodd" d="M38.2488 13.1813C38.5113 13.8664 30.1805 18.613 23.466 19.4171C23.5364 13.0202 26.4301 1.96581 20.1494 0.129212C32.4616 -1.40208 39.108 11.1356 38.2488 13.1813Z" fill="#656064"/>
<path fill-rule="evenodd" clip-rule="evenodd" d="M10.5974 38.3077C-0.350005 31.9228 -4.9499 19.7216 7.28083 11.0229C2.76844 21.8298 4.69712 31.0959 10.5974 38.3077Z" fill="#656064"/>
<path fill-rule="evenodd" clip-rule="evenodd" d="M7.12842 24.4336C18.3663 25.9289 32.1635 23.8567 38.9849 15.8085C39.7141 34.4122 8.03624 52.6205 7.12842 24.4336Z" fill="#0C94D0"/>
</svg>
