<svg width="35" height="32" viewBox="0 0 35 32" fill="none" xmlns="http://www.w3.org/2000/svg">
<path fill-rule="evenodd" clip-rule="evenodd" d="M1.85156 11.3469C3.8734 9.07641 6.45835 7.25606 9.40267 6.02933C12.347 4.80261 15.5702 4.20302 18.8184 4.27782C19.3793 -5.43253 3.60444 6.95478 1.85156 11.3469Z" fill="white"/>
<path fill-rule="evenodd" clip-rule="evenodd" d="M34.0127 10.5788C34.2461 11.1287 26.838 14.938 20.8672 15.5834C20.9299 10.4495 23.503 1.57772 17.918 0.10375C28.8664 -1.12521 34.7767 8.93699 34.0127 10.5788Z" fill="white"/>
<path fill-rule="evenodd" clip-rule="evenodd" d="M9.42362 30.7443C-0.311238 25.6201 -4.40165 15.8279 6.47441 8.84668C2.46181 17.5199 4.17687 24.9564 9.42362 30.7443Z" fill="white"/>
<path fill-rule="evenodd" clip-rule="evenodd" d="M6.33789 19.6092C16.331 20.8092 28.6001 19.1462 34.666 12.687C35.3144 27.6176 7.14517 42.2308 6.33789 19.6092Z" fill="white"/>
</svg>
