<svg width="23" height="26" viewBox="0 0 23 26" fill="none" xmlns="http://www.w3.org/2000/svg">
<path d="M16.0001 7.00046L5.58755 17.588C5.24284 17.9684 5.05762 18.4668 5.07026 18.9801C5.08289 19.4933 5.29241 19.982 5.65544 20.3451C6.01846 20.7081 6.50719 20.9176 7.02042 20.9303C7.53366 20.9429 8.03211 20.7577 8.41255 20.413L20.8251 7.82546C21.5145 7.06456 21.8849 6.06767 21.8596 5.04119C21.8344 4.01472 21.4153 3.03727 20.6893 2.31122C19.9632 1.58517 18.9858 1.16613 17.9593 1.14086C16.9328 1.11559 15.936 1.48602 15.1751 2.17546L2.76255 14.763C1.6387 15.8868 1.00732 17.4111 1.00732 19.0005C1.00732 20.5898 1.6387 22.1141 2.76255 23.238C3.88641 24.3618 5.41068 24.9932 7.00005 24.9932C8.58943 24.9932 10.1137 24.3618 11.2376 23.238L21.5001 13.0005" stroke="#3A393B" stroke-linecap="round" stroke-linejoin="round"/>
</svg>
