<svg width="24" height="24" viewBox="0 0 24 24" fill="none" xmlns="http://www.w3.org/2000/svg">
<g clip-path="url(#clip0_2391_12843)">
<path d="M15.5039 16.6309H8.49072V17.3823H15.5039V16.6309Z" fill="white"/>
<path d="M14.7277 2.98051H6.36199C6.18072 2.97917 6.00098 3.01389 5.83324 3.08265C5.66551 3.15141 5.51311 3.25283 5.38493 3.38102C5.25674 3.50921 5.15532 3.6616 5.08656 3.82934C5.0178 3.99708 4.98308 4.17681 4.98441 4.35809V19.6367C4.98308 19.818 5.0178 19.9977 5.08656 20.1655C5.15532 20.3332 5.25674 20.4856 5.38493 20.6138C5.51311 20.742 5.66551 20.8434 5.83324 20.9122C6.00098 20.9809 6.18072 21.0157 6.36199 21.0143H17.6331C17.8144 21.0157 17.9941 20.9809 18.1619 20.9122C18.3296 20.8434 18.482 20.742 18.6102 20.6138C18.7384 20.4856 18.8398 20.3332 18.9086 20.1655C18.9773 19.9977 19.012 19.818 19.0107 19.6367V7.26354L14.7277 2.98051ZM18.2343 19.6367C18.2331 19.7142 18.2161 19.7907 18.1842 19.8614C18.1523 19.932 18.1063 19.9954 18.0489 20.0475C17.9961 20.1057 17.932 20.1526 17.8605 20.1853C17.7891 20.218 17.7117 20.2359 17.6331 20.2379H6.36199C6.20676 20.2253 6.06106 20.1579 5.95093 20.0478C5.84081 19.9377 5.77344 19.792 5.76087 19.6367V4.35809C5.76283 4.27951 5.78071 4.20215 5.81343 4.13069C5.84615 4.05922 5.89303 3.99514 5.95122 3.94231C6.00335 3.88493 6.06671 3.83888 6.13737 3.807C6.20803 3.77511 6.28448 3.75808 6.36199 3.75696H14.377V7.58915H18.2593L18.2343 19.6367Z" fill="white"/>
<path d="M10.1991 14.9535H9.49281L7.42894 11.8326V14.9535H6.7627V10.7656H7.44898L9.49281 13.8815V10.7656H10.1791L10.1991 14.9535Z" fill="white"/>
<path d="M13.5552 10.7754V11.3364H11.7819V12.5688H13.1645V13.1298H11.7819V14.9532H11.1006V10.7754H13.5552Z" fill="white"/>
<path d="M17.207 13.5499H14.6773C14.6876 13.7928 14.7939 14.0216 14.9729 14.1861C15.1509 14.3472 15.3841 14.4333 15.6241 14.4266C15.7856 14.4377 15.9468 14.3996 16.0863 14.3174C16.2258 14.2351 16.3371 14.1125 16.4055 13.9657H17.1469C17.0479 14.2657 16.8568 14.5269 16.6009 14.7121C16.3089 14.9183 15.9561 15.0206 15.599 15.0027C15.3012 15.0068 15.0075 14.9325 14.7474 14.7873C14.4971 14.6474 14.292 14.4388 14.1563 14.1861C14.0093 13.9105 13.9352 13.6018 13.9409 13.2895C13.9338 12.9781 14.0044 12.67 14.1463 12.3928C14.2777 12.1416 14.4797 11.9344 14.7274 11.7967C14.9915 11.653 15.2884 11.5805 15.589 11.5863C15.881 11.581 16.1693 11.6518 16.4256 11.7916C16.6701 11.9222 16.8719 12.1205 17.0067 12.3627C17.1471 12.6242 17.2179 12.9175 17.2121 13.2143C17.2192 13.3261 17.2175 13.4384 17.207 13.5499V13.5499ZM16.5057 12.9989C16.5079 12.8842 16.4848 12.7704 16.438 12.6657C16.3913 12.5609 16.322 12.4678 16.2352 12.3928C16.0526 12.2372 15.8187 12.1551 15.579 12.1623C15.3557 12.158 15.1391 12.2386 14.9729 12.3878C14.7999 12.5468 14.6927 12.7648 14.6723 12.9989H16.5057Z" fill="white"/>
</g>
<defs>
<clipPath id="clip0_2391_12843">
<rect width="24" height="24" fill="white"/>
</clipPath>
</defs>
</svg>
